<svg width="39" height="24" viewBox="0 0 39 24" fill="none" xmlns="http://www.w3.org/2000/svg">
<path d="M1.69628 0H37.3038C37.531 0.00402382 37.7551 0.0493316 37.9633 0.133248C38.1716 0.217165 38.3598 0.338017 38.5173 0.489035C38.6748 0.640053 38.7984 0.818227 38.8812 1.01333C38.964 1.20843 39.0043 1.41655 38.9997 1.62599V21.9516C39.0043 22.1611 38.964 22.3692 38.8812 22.5643C38.7984 22.7594 38.6748 22.9376 38.5173 23.0886C38.3598 23.2396 38.1716 23.3604 37.9633 23.4444C37.7551 23.5283 37.531 23.5736 37.3038 23.5776H1.69628C1.46906 23.5736 1.24494 23.5283 1.03671 23.4444C0.828477 23.3604 0.640207 23.2396 0.482703 23.0886C0.3252 22.9376 0.201471 22.7594 0.118705 22.5643C0.0359389 22.3692 -0.00423433 22.1611 0.000352878 21.9516V1.62599C-0.00423433 1.41655 0.0359389 1.20843 0.118705 1.01333C0.201471 0.818227 0.3252 0.640053 0.482703 0.489035C0.640207 0.338017 0.828477 0.217165 1.03671 0.133248C1.24494 0.0493316 1.46906 0.00402382 1.69628 0Z" fill="url(#paint0_linear_1_392)"/>
<defs>
<linearGradient id="paint0_linear_1_392" x1="19.5" y1="23.5776" x2="19.5" y2="0" gradientUnits="userSpaceOnUse">
<stop stop-color="#E59703"/>
<stop offset="0.231" stop-color="#E59703"/>
<stop offset="0.234" stop-color="white"/>
<stop offset="0.761" stop-color="white"/>
<stop offset="0.766" stop-color="#5457BB"/>
<stop offset="1" stop-color="#5457BB"/>
</linearGradient>
</defs>
</svg>
